<svg width="26" height="26" viewBox="0 0 26 26" fill="none" xmlns="http://www.w3.org/2000/svg">
<path d="M17 13C17 15.2092 15.2092 17 13 17C10.7909 17 9.00004 15.2092 9.00004 13C9.00004 10.7909 10.7909 9.00004 13 9.00004C15.2092 9.00004 17 10.7909 17 13Z" stroke="#14142B" stroke-width="2"/>
<path d="M11.2845 2.86296C12.0611 1.567 13.939 1.567 14.7156 2.86297L15.4214 4.04073C15.8743 4.79653 16.7684 5.1669 17.6231 4.95272L18.9549 4.61896C20.4205 4.2517 21.7484 5.57962 21.3811 7.04513L21.0474 8.37699C20.8332 9.23166 21.2036 10.1258 21.9593 10.5787L23.1371 11.2845C24.4331 12.0611 24.4331 13.939 23.1371 14.7156L21.9593 15.4214C21.2035 15.8743 20.8332 16.7684 21.0474 17.6231L21.3811 18.9549C21.7484 20.4205 20.4205 21.7484 18.9549 21.3811L17.6231 21.0474C16.7684 20.8332 15.8743 21.2036 15.4214 21.9593L14.7156 23.1371C13.939 24.4331 12.0611 24.4331 11.2845 23.1371L10.5787 21.9593C10.1258 21.2035 9.23166 20.8332 8.37699 21.0474L7.04513 21.3811C5.57961 21.7484 4.2517 20.4205 4.61896 18.9549L4.95272 17.6231C5.1669 16.7684 4.79653 15.8743 4.04073 15.4214L2.86296 14.7156C1.567 13.939 1.567 12.0611 2.86297 11.2845L4.04073 10.5787C4.79653 10.1258 5.1669 9.23166 4.95272 8.37699L4.61896 7.04513C4.2517 5.57962 5.57962 4.2517 7.04513 4.61896L8.37699 4.95272C9.23166 5.1669 10.1258 4.79653 10.5787 4.04073L11.2845 2.86296Z" stroke="#14142B" stroke-width="2"/>
</svg>
