<svg width="25" height="25" viewBox="0 0 25 25" fill="none" xmlns="http://www.w3.org/2000/svg">
<path d="M11.2227 1.27425C12.0594 1.24079 12.8719 1.55848 13.464 2.15053L22.1627 10.8493C23.3343 12.0209 23.3343 13.9204 22.1627 15.0919L15.0917 22.163C13.9201 23.3346 12.0206 23.3346 10.849 22.163L2.15026 13.4642C1.5582 12.8722 1.24051 12.0596 1.27398 11.223L1.61973 2.57923C1.64056 2.05834 2.05807 1.64084 2.57896 1.62L11.2227 1.27425Z" stroke="#14142B" stroke-width="2"/>
<path d="M9.14062 7.55644C9.14062 8.10872 8.69291 8.55644 8.14062 8.55644C7.58834 8.55644 7.14062 8.10872 7.14062 7.55644C7.14062 7.00415 7.58834 6.55644 8.14062 6.55644C8.69291 6.55644 9.14062 7.00415 9.14062 7.55644Z" stroke="#14142B" stroke-width="2"/>
</svg>
