<svg width="26" height="24" viewBox="0 0 26 24" fill="none" xmlns="http://www.w3.org/2000/svg">
<path d="M2.2925 7V6C2.2925 4.34315 3.63565 3 5.2925 3H21.2925C22.9494 3 24.2925 4.34315 24.2925 6V18C24.2925 19.6569 22.9494 21 21.2925 21H16.2925M2.10481 11.6568C3.2867 11.6568 4.45703 11.8896 5.54896 12.3419C6.64089 12.7942 7.63304 13.4571 8.46877 14.2928C9.3045 15.1286 9.96743 16.1207 10.4197 17.2127C10.872 18.3046 11.1048 19.4749 11.1048 20.6568M2.10544 16.173C2.65958 16.173 3.20829 16.2821 3.72024 16.4942C4.2322 16.7062 4.69737 17.017 5.0892 17.4089C5.48104 17.8007 5.79186 18.2659 6.00392 18.7778C6.21598 19.2898 6.32512 19.8385 6.32512 20.3926M2.50004 20.8536C2.30478 21.0489 1.98819 21.0489 1.79293 20.8536C1.59767 20.6583 1.59767 20.3417 1.79293 20.1465C1.98819 19.9512 2.30478 19.9512 2.50004 20.1465C2.6953 20.3417 2.6953 20.6583 2.50004 20.8536Z" stroke="#14142B" stroke-width="2" stroke-linecap="round"/>
</svg>
