<svg width="24" height="24" viewBox="0 0 24 24" fill="none" xmlns="http://www.w3.org/2000/svg">
<path d="M23 12C23 18.0751 18.0751 23 12 23C5.92487 23 1 18.0751 1 12C1 5.92487 5.92487 1 12 1C18.0751 1 23 5.92487 23 12Z" stroke="#14142B" stroke-width="2"/>
<path d="M14.1908 15.5C14.6377 15.5 15.0075 15.8858 14.7716 16.2654C14.6209 16.508 14.3999 16.7285 14.1213 16.9142C13.8427 17.0999 13.512 17.2472 13.1481 17.3478C12.7841 17.4483 12.394 17.5 12 17.5C11.606 17.5 11.2159 17.4483 10.8519 17.3478C10.488 17.2472 10.1573 17.0999 9.87868 16.9142C9.6001 16.7285 9.37913 16.508 9.22836 16.2654C8.9925 15.8858 9.3623 15.5 9.80922 15.5H14.1908Z" stroke="#14142B" stroke-width="2"/>
<path d="M9 10C9 10.5523 8.55228 11 8 11C7.44772 11 7 10.5523 7 10C7 9.44772 7.44772 9 8 9C8.55228 9 9 9.44772 9 10Z" stroke="#14142B" stroke-width="2"/>
<path d="M17 10C17 10.5523 16.5523 11 16 11C15.4477 11 15 10.5523 15 10C15 9.44772 15.4477 9 16 9C16.5523 9 17 9.44772 17 10Z" stroke="#14142B" stroke-width="2"/>
</svg>
