<svg width="24" height="24" viewBox="0 0 24 24" fill="none" xmlns="http://www.w3.org/2000/svg">
<path d="M17.2777 1.97356L20.7457 2.35889C21.6754 2.46219 22.3924 3.19955 22.2947 4.12986C22.0507 6.45552 20.9013 11.0412 15.9719 15.9706C11.0426 20.8999 6.45629 22.05 4.13019 22.2945C3.19972 22.3923 2.46212 21.6752 2.3588 20.7453L1.97351 17.2778C1.88544 16.4851 2.27671 15.7159 2.96921 15.3203L5.45331 13.9012C6.23635 13.4539 7.22191 13.5859 7.85959 14.2236L8.49687 14.8609C8.96972 15.3337 9.65114 15.5338 10.2555 15.2475C10.9715 14.9083 12.0065 14.2792 13.1428 13.1429C14.2792 12.0065 14.9083 10.9716 15.2475 10.2555C15.5338 9.65119 15.3337 8.96977 14.8608 8.49692L14.2236 7.85964C13.5859 7.22196 13.4538 6.2364 13.9012 5.45335L15.3202 2.96926C15.7158 2.27676 16.4851 1.88549 17.2777 1.97356Z" stroke="#14142B" stroke-width="2" stroke-linecap="round" stroke-linejoin="round"/>
</svg>
