<svg width="24" height="24" viewBox="0 0 24 24" fill="none" xmlns="http://www.w3.org/2000/svg">
<path d="M17 8C17 7.44772 16.5523 7 16 7C15.4477 7 15 7.44772 15 8H17ZM15 13C15 13.5523 15.4477 14 16 14C16.5523 14 17 13.5523 17 13H15ZM18.0547 21.3321C18.5142 21.0257 18.6384 20.4048 18.3321 19.9453C18.0257 19.4858 17.4048 19.3616 16.9453 19.6679L18.0547 21.3321ZM15 8V13H17V8H15ZM15 12C15 13.6569 13.6569 15 12 15V17C14.7614 17 17 14.7614 17 12H15ZM12 15C10.3431 15 9 13.6569 9 12H7C7 14.7614 9.23858 17 12 17V15ZM9 12C9 10.3431 10.3431 9 12 9V7C9.23858 7 7 9.23858 7 12H9ZM12 9C13.6569 9 15 10.3431 15 12H17C17 9.23858 14.7614 7 12 7V9ZM21 12C21 13.1046 20.1046 14 19 14V16C21.2091 16 23 14.2091 23 12H21ZM19 14C17.8954 14 17 13.1046 17 12H15C15 14.2091 16.7909 16 19 16V14ZM23 12C23 10.2894 22.3084 7.58134 20.6182 5.28261C18.8955 2.93974 16.1129 1 12 1V3C15.3871 3 17.6045 4.56026 19.0068 6.46739C20.4416 8.41866 21 10.7106 21 12H23ZM12 1C7.9769 1 5.17909 2.48994 3.40909 4.68475C1.66794 6.84377 1 9.58491 1 12H3C3 9.91509 3.58206 7.65623 4.96591 5.94025C6.32091 4.26006 8.5231 3 12 3V1ZM1 12C1 14.4542 1.81411 17.1903 3.60881 19.3301C5.42651 21.4974 8.20856 23 12 23V21C8.79144 21 6.57349 19.7526 5.14119 18.0449C3.68589 16.3097 3 14.0458 3 12H1ZM12 23C12.8447 23 13.9269 22.8616 14.9925 22.5951C16.0516 22.3304 17.173 21.9198 18.0547 21.3321L16.9453 19.6679C16.327 20.0802 15.4484 20.4196 14.5075 20.6549C13.5731 20.8884 12.6553 21 12 21V23Z" fill="#14142B"/>
</svg>
