<svg width="25" height="24" viewBox="0 0 25 24" fill="none" xmlns="http://www.w3.org/2000/svg">
<path d="M7 10V23M14.1337 7.32541L14.5041 4.16543C14.7015 2.48022 13.3847 1 11.6879 1C11.1192 1 10.6056 1.33981 10.3831 1.86318L7.01753 9.78228C6.70374 10.5206 5.97912 11 5.17687 11H4C2.34315 11 1 12.3431 1 14V20C1 21.6569 2.34315 23 4 23H18.5748C19.9894 23 21.2118 22.0118 21.5082 20.6286L23.2224 12.6286C23.6226 10.7611 22.199 9 20.289 9H15.6235C14.7259 9 14.0293 8.21693 14.1337 7.32541Z" stroke="#14142B" stroke-width="2"/>
</svg>
