<svg width="25" height="24" viewBox="0 0 25 24" fill="none" xmlns="http://www.w3.org/2000/svg">
<path d="M7 14V1M14.1337 16.6746L14.5041 19.8346C14.7015 21.5198 13.3847 23 11.6879 23C11.1192 23 10.6056 22.6602 10.3831 22.1368L7.01753 14.2177C6.70374 13.4794 5.97912 13 5.17687 13H4C2.34315 13 1 11.6569 1 10V4C1 2.34315 2.34315 1 4 1H18.5748C19.9894 1 21.2118 1.9882 21.5082 3.37141L23.2224 11.3714C23.6226 13.2389 22.199 15 20.289 15H15.6235C14.7259 15 14.0293 15.7831 14.1337 16.6746Z" stroke="#14142B" stroke-width="2"/>
</svg>
