<svg width="24" height="24" viewBox="0 0 24 24" fill="none" xmlns="http://www.w3.org/2000/svg">
<path d="M3.23685 9.51926C3.76073 7.69228 4.84955 6.07804 6.34725 4.9079C7.84495 3.73777 9.67465 3.07181 11.5741 3.00548C13.4736 2.93915 15.3453 3.47586 16.9209 4.53867C18.4966 5.60148 19.6954 7.13583 20.3454 8.92182M20.1803 15.4987C19.5033 17.1033 18.3752 18.477 16.933 19.4532C15.4907 20.4294 13.7962 20.9662 12.055 20.9985C10.3137 21.0307 8.60046 20.5571 7.12303 19.635C5.64561 18.7129 4.46745 17.382 3.73143 15.8036M5.714 14.9349L3.14705 15.3156L1.91141 17.5975M18.1334 9.72986L20.7004 9.3492L21.936 7.06725" stroke="#14142B" stroke-width="2" stroke-linecap="round" stroke-linejoin="round"/>
</svg>
