<svg width="24" height="24" viewBox="0 0 24 24" fill="none" xmlns="http://www.w3.org/2000/svg">
<path d="M20.8785 2.87855C18.7296 0.72961 15.2455 0.729611 13.0965 2.87855L9.56485 6.41026C9.32188 6.65322 9.51887 7.03495 9.86216 7.02022L11.4187 6.95344C11.7086 6.94101 11.9833 6.82028 12.1884 6.61511L14.5108 4.29277C15.8787 2.92487 18.0964 2.92487 19.4643 4.29276C20.8322 5.66066 20.8322 7.87845 19.4643 9.24634L15.9326 12.778C14.5647 14.1459 12.3469 14.1459 10.9791 12.778C10.9449 12.7439 10.9116 12.7092 10.8791 12.674C10.6091 12.3812 10.2425 12.1738 9.84464 12.1909C9.0894 12.2233 8.59508 12.9924 9.04857 13.5972C9.2041 13.8047 9.37619 14.0036 9.56485 14.1923C11.7138 16.3412 15.1979 16.3412 17.3468 14.1923L20.8785 10.6606C23.0275 8.51161 23.0275 5.02749 20.8785 2.87855Z" fill="#14142B"/>
<path d="M13.3846 11.7237C14.1861 11.6964 14.6913 10.8642 14.1663 10.2578C14.0782 10.156 13.9859 10.0567 13.8892 9.96002C11.7087 7.7796 8.17358 7.7796 5.99315 9.96002L2.57547 13.3777C0.395041 15.5581 0.395041 19.0933 2.57547 21.2737C4.75589 23.4542 8.29107 23.4542 10.4715 21.2737L13.8892 17.8561C14.0653 17.6799 13.9271 17.3973 13.6782 17.4058L11.877 17.4671C11.5927 17.4768 11.3228 17.594 11.1217 17.7951L9.05728 19.8595C7.6579 21.2589 5.38906 21.2589 3.98968 19.8595C2.5903 18.4601 2.5903 16.1913 3.98968 14.7919L7.40736 11.3742C8.80674 9.97486 11.0756 9.97486 12.475 11.3742C12.6926 11.5919 12.9805 11.7375 13.2881 11.727L13.3846 11.7237Z" fill="#14142B"/>
</svg>
